<svg xmlns="http://www.w3.org/2000/svg" width="400" height="500" viewBox="0 0 400 500">
  <defs>
    <linearGradient id="bg3" x1="0" y1="0" x2="0" y2="1">
      <stop offset="0%" stop-color="#fdfcfc"/>
      <stop offset="100%" stop-color="#f0ecec"/>
    </linearGradient>
    <linearGradient id="gown3" x1="0" y1="0" x2="0.3" y2="1">
      <stop offset="0%" stop-color="#f8f5f5"/>
      <stop offset="100%" stop-color="#ede5e5"/>
    </linearGradient>
  </defs>
  <rect width="400" height="500" fill="url(#bg3)"/>
  <!-- Ball Gown silhouette - very full skirt -->
  <ellipse cx="200" cy="112" rx="30" ry="37" fill="#ede5e5" opacity="0.7"/>
  <path d="M170 142 Q162 165 155 195 Q140 230 80 390 Q80 430 200 430 Q320 430 320 390 Q260 230 245 195 Q238 165 230 142 Z" fill="url(#gown3)" stroke="#ddd" stroke-width="1.5" opacity="0.9"/>
  <!-- Tulle layers -->
  <path d="M160 230 Q130 300 100 390" fill="none" stroke="#c9a96e" stroke-width="0.7" opacity="0.25"/>
  <path d="M175 240 Q155 310 130 395" fill="none" stroke="#c9a96e" stroke-width="0.7" opacity="0.25"/>
  <path d="M225 240 Q245 310 270 395" fill="none" stroke="#c9a96e" stroke-width="0.7" opacity="0.25"/>
  <path d="M240 230 Q270 300 300 390" fill="none" stroke="#c9a96e" stroke-width="0.7" opacity="0.25"/>
  <!-- Lace bodice -->
  <path d="M172 148 Q200 140 228 148 Q225 185 200 190 Q175 185 172 148Z" fill="#c9a96e" opacity="0.08" stroke="#c9a96e" stroke-width="0.8"/>
  <!-- Waist cinch -->
  <path d="M172 190 Q200 183 228 190" fill="none" stroke="#c9a96e" stroke-width="2" opacity="0.5"/>
  <!-- Label -->
  <text x="200" y="462" text-anchor="middle" font-family="Georgia, serif" font-size="11" fill="#a07840" letter-spacing="2">ZM-AMA-02</text>
  <text x="200" y="480" text-anchor="middle" font-family="Georgia, serif" font-size="9" fill="#b8956a" letter-spacing="1" opacity="0.7">WHITE · SIZE 4</text>
</svg>
