<svg xmlns="http://www.w3.org/2000/svg" width="400" height="500" viewBox="0 0 400 500">
  <defs>
    <linearGradient id="bg4" x1="0" y1="0" x2="0" y2="1">
      <stop offset="0%" stop-color="#fdf8f0"/>
      <stop offset="100%" stop-color="#f5ead8"/>
    </linearGradient>
    <linearGradient id="gown4" x1="0" y1="0" x2="0.2" y2="1">
      <stop offset="0%" stop-color="#f0ddb8"/>
      <stop offset="100%" stop-color="#d4b07a"/>
    </linearGradient>
  </defs>
  <rect width="400" height="500" fill="url(#bg4)"/>
  <!-- Cocktail dress silhouette - shorter, structured -->
  <ellipse cx="200" cy="118" rx="30" ry="37" fill="#d4b07a" opacity="0.5"/>
  <path d="M172 148 Q164 175 160 205 Q148 255 145 310 Q145 345 200 348 Q255 345 255 310 Q252 255 240 205 Q236 175 228 148 Z" fill="url(#gown4)" stroke="#c9a96e" stroke-width="1.2" opacity="0.9"/>
  <!-- Structured bodice seams -->
  <path d="M186 155 L185 200" fill="none" stroke="#b8956a" stroke-width="1" opacity="0.4"/>
  <path d="M214 155 L215 200" fill="none" stroke="#b8956a" stroke-width="1" opacity="0.4"/>
  <!-- Belt/sash -->
  <rect x="162" y="197" width="76" height="10" rx="1" fill="#c9a96e" opacity="0.4"/>
  <!-- Pleating lines on skirt -->
  <path d="M175 215 Q170 265 165 318" fill="none" stroke="#b8956a" stroke-width="0.8" opacity="0.3"/>
  <path d="M200 210 L200 345" fill="none" stroke="#b8956a" stroke-width="0.8" opacity="0.3"/>
  <path d="M225 215 Q230 265 235 318" fill="none" stroke="#b8956a" stroke-width="0.8" opacity="0.3"/>
  <!-- Label -->
  <text x="200" y="462" text-anchor="middle" font-family="Georgia, serif" font-size="11" fill="#a07840" letter-spacing="2">OLR-ISA-01</text>
  <text x="200" y="480" text-anchor="middle" font-family="Georgia, serif" font-size="9" fill="#b8956a" letter-spacing="1" opacity="0.7">CHAMPAGNE · SIZE 6</text>
</svg>
