<svg xmlns="http://www.w3.org/2000/svg" viewBox="0 0 900 500" width="900" height="500">
  <defs>
    <linearGradient id="feabg" x1="0%" y1="0%" x2="100%" y2="100%">
      <stop offset="0%" style="stop-color:#d4c9b4;stop-opacity:1" />
      <stop offset="50%" style="stop-color:#e8dfd0;stop-opacity:1" />
      <stop offset="100%" style="stop-color:#cfc4af;stop-opacity:1" />
    </linearGradient>
  </defs>
  <rect width="900" height="500" fill="url(#feabg)"/>
  <!-- Pattern dots -->
  <pattern id="dots" x="0" y="0" width="30" height="30" patternUnits="userSpaceOnUse">
    <circle cx="15" cy="15" r="1" fill="#c9a96e" opacity="0.2"/>
  </pattern>
  <rect width="900" height="500" fill="url(#dots)"/>
  <!-- Border -->
  <rect x="25" y="25" width="850" height="450" fill="none" stroke="#c9a96e" stroke-width="0.8" opacity="0.4"/>
  <!-- Corner ornaments -->
  <path d="M 25 25 L 25 65 M 25 25 L 65 25" stroke="#c9a96e" stroke-width="1.5" opacity="0.6"/>
  <path d="M 875 25 L 875 65 M 875 25 L 835 25" stroke="#c9a96e" stroke-width="1.5" opacity="0.6"/>
  <path d="M 25 475 L 25 435 M 25 475 L 65 475" stroke="#c9a96e" stroke-width="1.5" opacity="0.6"/>
  <path d="M 875 475 L 875 435 M 875 475 L 835 475" stroke="#c9a96e" stroke-width="1.5" opacity="0.6"/>
  <!-- Label -->
  <text x="450" y="245" text-anchor="middle" font-family="Georgia, serif" font-style="italic" font-size="28" fill="#0d1310" opacity="0.7"></text>
  <line x1="350" y1="262" x2="550" y2="262" stroke="#c9a96e" stroke-width="0.8" opacity="0.6"/>
  <text x="450" y="285" text-anchor="middle" font-family="Arial, sans-serif" font-size="11" letter-spacing="4" fill="#0d1310" opacity="0.4">FARYAL AL HOSARY</text>
</svg>
